<svg width="15" height="17" viewBox="0 0 15 17" fill="none" xmlns="http://www.w3.org/2000/svg">
<path d="M9.50794 4.42027L4.64154 9.66035C4.34369 9.98106 4.17637 10.416 4.17637 10.8696C4.17637 11.3231 4.34369 11.7581 4.64154 12.0788C4.93938 12.3996 5.34334 12.5797 5.76455 12.5797C6.18576 12.5797 6.58973 12.3996 6.88757 12.0788L11.754 6.83877C12.3497 6.19734 12.6843 5.32738 12.6843 4.42027C12.6843 3.51316 12.3497 2.6432 11.754 2.00177C11.1583 1.36035 10.3504 1 9.50794 1C8.66551 1 7.85759 1.36035 7.26191 2.00177L2.3955 7.24185C1.50198 8.20399 1 9.50893 1 10.8696C1 12.2303 1.50198 13.5352 2.3955 14.4973C3.28903 15.4595 4.50091 16 5.76455 16C7.02819 16 8.24007 15.4595 9.1336 14.4973L14 9.25726" stroke="#8C8F96" stroke-linecap="round" stroke-linejoin="round"/>
</svg>
